<svg xmlns="http://www.w3.org/2000/svg" width="81.153" height="81.153" viewBox="0 0 81.153 81.153"><g transform="translate(-3.375 -3.375)"><path d="M52.22,15.971,48.787,12.44a.738.738,0,0,0-.546-.234h0a.708.708,0,0,0-.546.234l-23.8,23.975-8.661-8.661a.754.754,0,0,0-1.092,0l-3.472,3.472a.777.777,0,0,0,0,1.112L21.593,43.263a3.455,3.455,0,0,0,2.282,1.112A3.62,3.62,0,0,0,26.138,43.3h.02L52.24,17.083A.834.834,0,0,0,52.22,15.971Z" transform="translate(12.527 15.671)" fill="#34c759"/><path d="M43.951,8.837A35.12,35.12,0,0,1,68.785,68.785,35.12,35.12,0,0,1,19.118,19.118,34.882,34.882,0,0,1,43.951,8.837m0-5.462A40.576,40.576,0,1,0,84.528,43.951,40.57,40.57,0,0,0,43.951,3.375Z" transform="translate(0 0)" fill="#34c759"/></g></svg>