<svg xmlns="http://www.w3.org/2000/svg" width="24.015" height="24.505" viewBox="0 0 24.015 24.505"><path d="M142.313,109.266a10.5,10.5,0,0,0-.259-2.5h-11.5v4.547H137.3a5.988,5.988,0,0,1-2.5,3.975l-.023.152,3.637,2.818.252.025a11.98,11.98,0,0,0,3.649-9.013" transform="translate(-118.297 -96.741)" fill="#4285f4"/><path d="M24.871,166.2a11.678,11.678,0,0,0,8.114-2.968l-3.866-3a7.252,7.252,0,0,1-4.248,1.225,7.376,7.376,0,0,1-6.97-5.092l-.144.012-3.782,2.927-.049.137A12.244,12.244,0,0,0,24.871,166.2" transform="translate(-12.618 -141.694)" fill="#34a853"/><path d="M5.282,79.3a7.543,7.543,0,0,1-.408-2.423,7.926,7.926,0,0,1,.395-2.423l-.007-.162-3.83-2.974-.125.06a12.227,12.227,0,0,0,0,11L5.282,79.3" transform="translate(0 -64.619)" fill="#fbbc05"/><path d="M24.871,4.738a6.791,6.791,0,0,1,4.738,1.824l3.458-3.376A11.772,11.772,0,0,0,24.871,0,12.244,12.244,0,0,0,13.925,6.753l3.962,3.077a7.406,7.406,0,0,1,6.984-5.092" transform="translate(-12.618)" fill="#eb4335"/></svg>